<svg xmlns="http://www.w3.org/2000/svg" width="500" height="500" viewBox="0 0 500 500" version="1.1"><path d="M 179.464 200.326 C 172.926 202.854, 168.785 208.004, 167.462 215.250 L 166.777 219 172.889 219 C 178.379 219, 179 218.792, 179 216.955 C 179 213.706, 183.404 210, 187.266 210 C 191.838 210, 195 213.091, 195 217.561 C 195 221.853, 191.403 225.966, 177.117 238.008 L 167.042 246.500 167.021 251.250 L 167 256 188 256 L 209 256 209 250.500 L 209 245 197.767 245 L 186.534 245 192.017 240.281 C 204.166 229.826, 207.216 225.099, 207.152 216.827 C 207.069 206.162, 199.276 199.152, 187.500 199.152 C 184.750 199.152, 181.134 199.680, 179.464 200.326 M 128.562 203.506 C 126.917 207.442, 123.904 209, 117.935 209 L 114 209 114 214.500 L 114 220 120.500 220 L 127 220 127 238 L 127 256 133 256 L 139 256 139 228 L 139 200 134.513 200 C 130.330 200, 129.928 200.237, 128.562 203.506 M 260 209.500 L 260 216 322 216 L 384 216 384 209.500 L 384 203 322 203 L 260 203 260 209.500 M 236.174 215.314 C 231.674 220.105, 234.773 227, 241.427 227 C 243.962 227, 245.409 226.295, 246.984 224.293 C 252.442 217.355, 242.228 208.871, 236.174 215.314 M 282 243.500 L 282 249 292.719 249 L 303.437 249 297.719 254.779 C 292.820 259.729, 292 261.092, 292 264.279 L 292 268 296.851 268 C 306.104 268, 310 270.626, 310 276.862 C 310 282.301, 302.367 285.872, 296.945 282.970 C 295.886 282.404, 294.329 280.604, 293.485 278.970 C 292.059 276.212, 291.548 276, 286.343 276 L 280.737 276 281.267 279.953 C 282.389 288.316, 289.279 293.932, 299.418 294.745 C 313.014 295.837, 322 288.769, 322 276.984 C 322 269.332, 317.854 263.097, 311.335 260.946 C 309.501 260.340, 308 259.528, 308 259.141 C 308 258.754, 310.700 255.766, 314 252.500 C 319.474 247.083, 320 246.188, 320 242.281 L 320 238 301 238 L 282 238 282 243.500 M 360.407 240.516 C 359.434 244.393, 355.397 247, 350.365 247 L 346 247 346 252.500 L 346 258 352 258 L 358 258 358 276 L 358 294 364.500 294 L 371 294 371 266 L 371 238 366.019 238 C 361.532 238, 360.976 238.249, 360.407 240.516 M 238.315 243.016 C 233.488 244.941, 232.534 251.702, 236.635 254.927 C 240.956 258.326, 245.162 257.521, 247.589 252.829 C 249.265 249.587, 248.835 247.041, 246.224 244.750 C 243.816 242.636, 240.882 241.993, 238.315 243.016 M 120 288.008 L 120 295.015 181.750 294.758 L 243.500 294.500 243.796 287.750 L 244.091 281 182.046 281 L 120 281 120 288.008" stroke="none" fill="#0b0b0b" fill-rule="evenodd"/><path d="M 0 250.002 L 0 500.004 250.250 499.752 L 500.500 499.500 500.752 249.750 L 501.004 0 250.502 0 L 0 0 0 250.002 M 0.492 250.500 C 0.492 388, 0.608 444.101, 0.750 375.170 C 0.892 306.238, 0.892 193.738, 0.750 125.170 C 0.608 56.601, 0.492 113, 0.492 250.500 M 179.464 200.326 C 172.926 202.854, 168.785 208.004, 167.462 215.250 L 166.777 219 172.889 219 C 178.379 219, 179 218.792, 179 216.955 C 179 213.706, 183.404 210, 187.266 210 C 191.838 210, 195 213.091, 195 217.561 C 195 221.853, 191.403 225.966, 177.117 238.008 L 167.042 246.500 167.021 251.250 L 167 256 188 256 L 209 256 209 250.500 L 209 245 197.767 245 L 186.534 245 192.017 240.281 C 204.166 229.826, 207.216 225.099, 207.152 216.827 C 207.069 206.162, 199.276 199.152, 187.500 199.152 C 184.750 199.152, 181.134 199.680, 179.464 200.326 M 128.562 203.506 C 126.917 207.442, 123.904 209, 117.935 209 L 114 209 114 214.500 L 114 220 120.500 220 L 127 220 127 238 L 127 256 133 256 L 139 256 139 228 L 139 200 134.513 200 C 130.330 200, 129.928 200.237, 128.562 203.506 M 260 209.500 L 260 216 322 216 L 384 216 384 209.500 L 384 203 322 203 L 260 203 260 209.500 M 236.174 215.314 C 231.674 220.105, 234.773 227, 241.427 227 C 243.962 227, 245.409 226.295, 246.984 224.293 C 252.442 217.355, 242.228 208.871, 236.174 215.314 M 282 243.500 L 282 249 292.719 249 L 303.437 249 297.719 254.779 C 292.820 259.729, 292 261.092, 292 264.279 L 292 268 296.851 268 C 306.104 268, 310 270.626, 310 276.862 C 310 282.301, 302.367 285.872, 296.945 282.970 C 295.886 282.404, 294.329 280.604, 293.485 278.970 C 292.059 276.212, 291.548 276, 286.343 276 L 280.737 276 281.267 279.953 C 282.389 288.316, 289.279 293.932, 299.418 294.745 C 313.014 295.837, 322 288.769, 322 276.984 C 322 269.332, 317.854 263.097, 311.335 260.946 C 309.501 260.340, 308 259.528, 308 259.141 C 308 258.754, 310.700 255.766, 314 252.500 C 319.474 247.083, 320 246.188, 320 242.281 L 320 238 301 238 L 282 238 282 243.500 M 360.407 240.516 C 359.434 244.393, 355.397 247, 350.365 247 L 346 247 346 252.500 L 346 258 352 258 L 358 258 358 276 L 358 294 364.500 294 L 371 294 371 266 L 371 238 366.019 238 C 361.532 238, 360.976 238.249, 360.407 240.516 M 238.315 243.016 C 233.488 244.941, 232.534 251.702, 236.635 254.927 C 240.956 258.326, 245.162 257.521, 247.589 252.829 C 249.265 249.587, 248.835 247.041, 246.224 244.750 C 243.816 242.636, 240.882 241.993, 238.315 243.016 M 120 288.008 L 120 295.015 181.750 294.758 L 243.500 294.500 243.796 287.750 L 244.091 281 182.046 281 L 120 281 120 288.008" stroke="none" fill="#e3e3e3" fill-rule="evenodd"/></svg>